<?xml version="1.0" encoding="iso-8859-1"?>
<!-- Generator: Adobe Illustrator 19.0.0, SVG Export Plug-In . SVG Version: 6.00 Build 0)  -->
<svg version="1.1" id="Capa_1" xmlns="http://www.w3.org/2000/svg" xmlns:xlink="http://www.w3.org/1999/xlink" x="0px" y="0px"
	 viewBox="0 0 496.485 496.485" style="enable-background:new 0 0 496.485 496.485;" xml:space="preserve">
<circle style="fill:#E1E6E9;" cx="252.121" cy="244.364" r="244.364"/>
<g>
	<rect x="141.188" y="202.473" style="fill:#193651;" width="15.515" height="15.515"/>
	<rect x="207.903" y="202.473" style="fill:#193651;" width="15.515" height="15.515"/>
	<rect x="273.842" y="202.473" style="fill:#193651;" width="15.515" height="15.515"/>
	<rect x="214.885" y="240.485" style="fill:#193651;" width="15.515" height="15.515"/>
	<rect x="281.6" y="240.485" style="fill:#193651;" width="15.515" height="15.515"/>
	<rect x="348.315" y="240.485" style="fill:#193651;" width="15.515" height="15.515"/>
</g>
<path style="fill:#2EA2DB;" d="M470.109,7.758H329.697c-10.085,0-18.618,8.533-18.618,18.618v93.867L273.842,153.6h196.267
	c10.085,0,18.618-8.533,18.618-18.618V26.376C488.727,16.291,480.194,7.758,470.109,7.758z"/>
<path style="fill:#193651;" d="M470.109,161.358H273.842c-3.103,0-6.206-2.327-6.982-4.655c-0.776-3.103,0-6.206,2.327-8.533
	l34.133-31.03V26.376C303.321,11.636,314.958,0,329.697,0h140.412c14.739,0,26.376,11.636,26.376,26.376v108.606
	C496.485,149.721,484.849,161.358,470.109,161.358z M294.012,145.842h176.097c6.206,0,10.861-4.655,10.861-10.861V26.376
	c0-6.206-4.655-10.861-10.861-10.861H329.697c-6.206,0-10.861,4.655-10.861,10.861v93.867c0,2.327-0.776,3.879-2.327,5.43
	L294.012,145.842z"/>
<rect x="341.333" y="38.788" style="fill:#FFFFFF;" width="116.364" height="84.558"/>
<path style="fill:#FDBF5E;" d="M26.376,7.758h140.412c10.085,0,18.618,8.533,18.618,18.618v93.867l37.236,33.358H26.376
	c-10.085,0-18.618-8.533-18.618-18.618V26.376C7.758,16.291,16.291,7.758,26.376,7.758z"/>
<path style="fill:#193651;" d="M222.642,161.358L222.642,161.358H26.376C11.636,161.358,0,149.721,0,134.982V26.376
	C0,11.636,11.636,0,26.376,0h140.412c14.739,0,26.376,11.636,26.376,26.376v90.764l33.358,30.255
	c2.327,1.552,3.879,3.879,3.879,6.206C230.4,157.479,226.521,161.358,222.642,161.358z M26.376,15.515
	c-6.206,0-10.861,4.655-10.861,10.861v108.606c0,6.206,4.655,10.861,10.861,10.861h176.097l-21.721-20.17
	c-1.552-1.552-2.327-3.879-2.327-5.43V26.376c0-6.206-4.655-10.861-10.861-10.861H26.376z"/>
<rect x="38.012" y="38.788" style="fill:#FFFFFF;" width="116.364" height="84.558"/>
<path style="fill:#4FBF9F;" d="M200.145,280.824H38.788c-13.188,0-23.273,10.085-23.273,23.273v161.358
	c0,13.188,10.085,23.273,23.273,23.273h161.358c13.188,0,23.273-10.085,23.273-23.273V304.097
	C223.418,290.909,213.333,280.824,200.145,280.824z"/>
<path style="fill:#193651;" d="M200.921,496.485H38.012c-16.291,0-30.255-13.964-30.255-30.255V304.097
	c0-17.067,13.964-30.255,30.255-30.255h162.133c17.067,0,30.255,13.964,30.255,30.255V466.23
	C231.176,482.521,217.212,496.485,200.921,496.485z M38.012,288.582c-8.533,0-15.515,6.982-15.515,15.515V466.23
	c0,8.533,6.982,15.515,15.515,15.515h162.133c8.533,0,15.515-6.982,15.515-15.515V304.097c0-8.533-6.982-15.515-15.515-15.515
	H38.012z"/>
<rect x="46.623" y="311.156" style="fill:#FFFFFF;" width="146.618" height="146.618"/>
<path style="fill:#F16051;" d="M465.455,280.824H304.097c-13.188,0-23.273,10.085-23.273,23.273v161.358
	c0,13.188,10.085,23.273,23.273,23.273h161.358c13.188,0,23.273-10.085,23.273-23.273V304.097
	C488.727,290.909,477.867,280.824,465.455,280.824z"/>
<path style="fill:#193651;" d="M465.455,496.485H303.321c-17.067,0-30.255-13.964-30.255-30.255V304.097
	c0-17.067,13.964-30.255,30.255-30.255h162.133c17.067,0,30.255,13.964,30.255,30.255V466.23
	C496.485,482.521,482.521,496.485,465.455,496.485z M303.321,288.582c-8.533,0-15.515,6.982-15.515,15.515V466.23
	c0,8.533,6.982,15.515,15.515,15.515h162.133c8.533,0,15.515-6.982,15.515-15.515V304.097c0-8.533-6.982-15.515-15.515-15.515
	H303.321z"/>
<rect x="311.777" y="311.296" style="fill:#FFFFFF;" width="146.618" height="146.618"/>
<g>
	<path style="fill:#193651;" d="M97.745,408.824l-8.533,20.17H72.921l38.788-88.436H128l38.788,88.436h-16.291l-8.533-20.17
		L97.745,408.824L97.745,408.824z M135.758,394.861L119.467,358.4l-16.291,36.461H135.758z"/>
	<path style="fill:#193651;" d="M387.879,428.994h-38.788v-88.436h34.133c6.206,0,10.861,0.776,15.515,2.327
		c4.655,1.552,7.758,3.103,9.309,5.43c3.879,4.655,6.206,9.309,6.206,15.515c0,6.982-2.327,12.412-6.206,15.515
		c-1.552,1.552-2.327,1.552-3.103,2.327c-0.776,0-1.552,0.776-3.103,1.552c5.43,1.552,10.085,3.879,13.188,7.758
		c3.103,3.879,4.655,8.533,4.655,13.964c0,6.206-2.327,11.636-6.206,16.291C408.824,425.891,400.291,428.994,387.879,428.994z
		 M364.606,377.018h18.618c10.861,0,16.291-3.879,16.291-10.861c0-3.879-1.552-6.982-3.879-9.309
		c-2.327-1.552-6.982-3.103-12.412-3.103h-18.618V377.018z M364.606,415.03h23.273c5.43,0,9.309-0.776,12.412-2.327
		c3.103-1.552,4.655-4.655,4.655-10.085c0-7.758-6.206-11.636-18.618-11.636h-21.721V415.03z"/>
	<rect x="359.176" y="72.921" style="fill:#193651;" width="15.515" height="15.515"/>
	<rect x="391.758" y="72.921" style="fill:#193651;" width="15.515" height="15.515"/>
	<rect x="425.115" y="72.921" style="fill:#193651;" width="15.515" height="15.515"/>
</g>
<g>
	<rect x="56.63" y="72.921" style="fill:#193651;" width="15.515" height="15.515"/>
	<rect x="89.212" y="72.921" style="fill:#193651;" width="15.515" height="15.515"/>
	<rect x="121.794" y="72.921" style="fill:#193651;" width="15.515" height="15.515"/>
</g>
<g>
</g>
<g>
</g>
<g>
</g>
<g>
</g>
<g>
</g>
<g>
</g>
<g>
</g>
<g>
</g>
<g>
</g>
<g>
</g>
<g>
</g>
<g>
</g>
<g>
</g>
<g>
</g>
<g>
</g>
</svg>
